<mxfile host="app.diagrams.net" modified="2020-05-12T12:42:54.812Z" agent="5.0 (Windows NT 10.0; Win64; x64) AppleWebKit/537.36 (KHTML, like Gecko) Chrome/81.0.4044.138 Safari/537.36" etag="2SuYp2YKbP9jKOUToHVA" version="13.1.0" type="github">
  <diagram id="jb4bQr8QBYjT58q-OPt7" name="Page-1">
    <mxGraphModel dx="1422" dy="762" grid="1" gridSize="10" guides="1" tooltips="1" connect="1" arrows="1" fold="1" page="1" pageScale="1" pageWidth="827" pageHeight="1169" math="0" shadow="0">
      <root>
        <mxCell id="0" />
        <mxCell id="1" parent="0" />
        <mxCell id="3FtpG7C2AMGnpTfffTlQ-12" style="edgeStyle=orthogonalEdgeStyle;rounded=0;orthogonalLoop=1;jettySize=auto;html=1;entryX=0.5;entryY=0;entryDx=0;entryDy=0;" edge="1" parent="1" source="3FtpG7C2AMGnpTfffTlQ-1" target="3FtpG7C2AMGnpTfffTlQ-3">
          <mxGeometry relative="1" as="geometry" />
        </mxCell>
        <mxCell id="3FtpG7C2AMGnpTfffTlQ-13" value="Account" style="edgeLabel;html=1;align=center;verticalAlign=middle;resizable=0;points=[];" vertex="1" connectable="0" parent="3FtpG7C2AMGnpTfffTlQ-12">
          <mxGeometry x="-0.24" y="2" relative="1" as="geometry">
            <mxPoint as="offset" />
          </mxGeometry>
        </mxCell>
        <mxCell id="3FtpG7C2AMGnpTfffTlQ-14" style="edgeStyle=orthogonalEdgeStyle;rounded=0;orthogonalLoop=1;jettySize=auto;html=1;exitX=1;exitY=0.5;exitDx=0;exitDy=0;entryX=0.5;entryY=0;entryDx=0;entryDy=0;" edge="1" parent="1" source="3FtpG7C2AMGnpTfffTlQ-1" target="3FtpG7C2AMGnpTfffTlQ-7">
          <mxGeometry relative="1" as="geometry" />
        </mxCell>
        <mxCell id="3FtpG7C2AMGnpTfffTlQ-18" value="Not Registered" style="edgeLabel;html=1;align=center;verticalAlign=middle;resizable=0;points=[];" vertex="1" connectable="0" parent="3FtpG7C2AMGnpTfffTlQ-14">
          <mxGeometry x="-0.0533" y="2" relative="1" as="geometry">
            <mxPoint x="-1" y="-8" as="offset" />
          </mxGeometry>
        </mxCell>
        <mxCell id="3FtpG7C2AMGnpTfffTlQ-1" value="Patient" style="rounded=0;whiteSpace=wrap;html=1;fontStyle=1;fontSize=14;" vertex="1" parent="1">
          <mxGeometry x="240" y="60" width="150" height="60" as="geometry" />
        </mxCell>
        <mxCell id="3FtpG7C2AMGnpTfffTlQ-20" style="edgeStyle=orthogonalEdgeStyle;rounded=0;orthogonalLoop=1;jettySize=auto;html=1;exitX=1;exitY=0.75;exitDx=0;exitDy=0;entryX=0.5;entryY=0;entryDx=0;entryDy=0;" edge="1" parent="1" source="3FtpG7C2AMGnpTfffTlQ-2" target="3FtpG7C2AMGnpTfffTlQ-9">
          <mxGeometry relative="1" as="geometry" />
        </mxCell>
        <mxCell id="3FtpG7C2AMGnpTfffTlQ-22" value="First Time Login" style="edgeLabel;html=1;align=center;verticalAlign=middle;resizable=0;points=[];" vertex="1" connectable="0" parent="3FtpG7C2AMGnpTfffTlQ-20">
          <mxGeometry x="-0.3692" y="4" relative="1" as="geometry">
            <mxPoint x="14" y="-1" as="offset" />
          </mxGeometry>
        </mxCell>
        <mxCell id="3FtpG7C2AMGnpTfffTlQ-21" style="edgeStyle=orthogonalEdgeStyle;rounded=0;orthogonalLoop=1;jettySize=auto;html=1;exitX=0.5;exitY=1;exitDx=0;exitDy=0;entryX=0.5;entryY=0;entryDx=0;entryDy=0;" edge="1" parent="1" source="3FtpG7C2AMGnpTfffTlQ-2" target="3FtpG7C2AMGnpTfffTlQ-5">
          <mxGeometry relative="1" as="geometry" />
        </mxCell>
        <mxCell id="3FtpG7C2AMGnpTfffTlQ-23" value="Logged In Patient" style="edgeLabel;html=1;align=center;verticalAlign=middle;resizable=0;points=[];" vertex="1" connectable="0" parent="3FtpG7C2AMGnpTfffTlQ-21">
          <mxGeometry x="-0.2154" y="1" relative="1" as="geometry">
            <mxPoint as="offset" />
          </mxGeometry>
        </mxCell>
        <mxCell id="3FtpG7C2AMGnpTfffTlQ-2" value="Login" style="whiteSpace=wrap;html=1;aspect=fixed;fontSize=14;" vertex="1" parent="1">
          <mxGeometry x="245" y="220" width="140" height="140" as="geometry" />
        </mxCell>
        <mxCell id="3FtpG7C2AMGnpTfffTlQ-15" style="edgeStyle=orthogonalEdgeStyle;rounded=0;orthogonalLoop=1;jettySize=auto;html=1;exitX=0.75;exitY=0;exitDx=0;exitDy=0;entryX=0;entryY=0.25;entryDx=0;entryDy=0;" edge="1" parent="1" source="3FtpG7C2AMGnpTfffTlQ-3" target="3FtpG7C2AMGnpTfffTlQ-6">
          <mxGeometry relative="1" as="geometry" />
        </mxCell>
        <mxCell id="3FtpG7C2AMGnpTfffTlQ-17" value="Not Registered" style="edgeLabel;html=1;align=center;verticalAlign=middle;resizable=0;points=[];" vertex="1" connectable="0" parent="3FtpG7C2AMGnpTfffTlQ-15">
          <mxGeometry x="-0.1613" y="-21" relative="1" as="geometry">
            <mxPoint x="40" y="-6" as="offset" />
          </mxGeometry>
        </mxCell>
        <mxCell id="3FtpG7C2AMGnpTfffTlQ-3" value="1.0" style="rounded=0;whiteSpace=wrap;html=1;fontSize=14;" vertex="1" parent="1">
          <mxGeometry x="245" y="220" width="140" height="30" as="geometry" />
        </mxCell>
        <mxCell id="3FtpG7C2AMGnpTfffTlQ-26" style="edgeStyle=orthogonalEdgeStyle;rounded=0;orthogonalLoop=1;jettySize=auto;html=1;exitX=1;exitY=0.75;exitDx=0;exitDy=0;entryX=0.014;entryY=0.6;entryDx=0;entryDy=0;entryPerimeter=0;" edge="1" parent="1" source="3FtpG7C2AMGnpTfffTlQ-4" target="3FtpG7C2AMGnpTfffTlQ-10">
          <mxGeometry relative="1" as="geometry">
            <mxPoint x="540" y="595" as="targetPoint" />
            <Array as="points">
              <mxPoint x="520" y="595" />
              <mxPoint x="520" y="534" />
            </Array>
          </mxGeometry>
        </mxCell>
        <mxCell id="3FtpG7C2AMGnpTfffTlQ-27" value="Button" style="edgeLabel;html=1;align=center;verticalAlign=middle;resizable=0;points=[];" vertex="1" connectable="0" parent="3FtpG7C2AMGnpTfffTlQ-26">
          <mxGeometry x="0.4797" relative="1" as="geometry">
            <mxPoint as="offset" />
          </mxGeometry>
        </mxCell>
        <mxCell id="3FtpG7C2AMGnpTfffTlQ-38" style="edgeStyle=orthogonalEdgeStyle;rounded=0;orthogonalLoop=1;jettySize=auto;html=1;exitX=0;exitY=0.75;exitDx=0;exitDy=0;entryX=0.5;entryY=1;entryDx=0;entryDy=0;" edge="1" parent="1" source="3FtpG7C2AMGnpTfffTlQ-4" target="3FtpG7C2AMGnpTfffTlQ-36">
          <mxGeometry relative="1" as="geometry" />
        </mxCell>
        <mxCell id="3FtpG7C2AMGnpTfffTlQ-41" value="Button" style="edgeLabel;html=1;align=center;verticalAlign=middle;resizable=0;points=[];" vertex="1" connectable="0" parent="3FtpG7C2AMGnpTfffTlQ-38">
          <mxGeometry x="-0.4424" y="1" relative="1" as="geometry">
            <mxPoint as="offset" />
          </mxGeometry>
        </mxCell>
        <mxCell id="3FtpG7C2AMGnpTfffTlQ-4" value="Showing Home" style="whiteSpace=wrap;html=1;aspect=fixed;fontSize=14;" vertex="1" parent="1">
          <mxGeometry x="245" y="490" width="140" height="140" as="geometry" />
        </mxCell>
        <mxCell id="3FtpG7C2AMGnpTfffTlQ-5" value="3.0" style="rounded=0;whiteSpace=wrap;html=1;fontSize=14;" vertex="1" parent="1">
          <mxGeometry x="245" y="490" width="140" height="30" as="geometry" />
        </mxCell>
        <mxCell id="3FtpG7C2AMGnpTfffTlQ-16" style="edgeStyle=orthogonalEdgeStyle;rounded=0;orthogonalLoop=1;jettySize=auto;html=1;exitX=0.5;exitY=1;exitDx=0;exitDy=0;entryX=1;entryY=0.5;entryDx=0;entryDy=0;" edge="1" parent="1" source="3FtpG7C2AMGnpTfffTlQ-6" target="3FtpG7C2AMGnpTfffTlQ-2">
          <mxGeometry relative="1" as="geometry" />
        </mxCell>
        <mxCell id="3FtpG7C2AMGnpTfffTlQ-19" value="Account" style="edgeLabel;html=1;align=center;verticalAlign=middle;resizable=0;points=[];" vertex="1" connectable="0" parent="3FtpG7C2AMGnpTfffTlQ-16">
          <mxGeometry x="-0.0452" relative="1" as="geometry">
            <mxPoint y="-10" as="offset" />
          </mxGeometry>
        </mxCell>
        <mxCell id="3FtpG7C2AMGnpTfffTlQ-46" style="edgeStyle=orthogonalEdgeStyle;rounded=0;orthogonalLoop=1;jettySize=auto;html=1;exitX=1;exitY=0.25;exitDx=0;exitDy=0;entryX=0.75;entryY=0;entryDx=0;entryDy=0;" edge="1" parent="1" source="3FtpG7C2AMGnpTfffTlQ-6" target="3FtpG7C2AMGnpTfffTlQ-43">
          <mxGeometry relative="1" as="geometry" />
        </mxCell>
        <mxCell id="3FtpG7C2AMGnpTfffTlQ-47" value="Send" style="edgeLabel;html=1;align=center;verticalAlign=middle;resizable=0;points=[];" vertex="1" connectable="0" parent="3FtpG7C2AMGnpTfffTlQ-46">
          <mxGeometry x="-0.6584" y="-1" relative="1" as="geometry">
            <mxPoint as="offset" />
          </mxGeometry>
        </mxCell>
        <mxCell id="3FtpG7C2AMGnpTfffTlQ-6" value="Register" style="whiteSpace=wrap;html=1;aspect=fixed;fontSize=14;" vertex="1" parent="1">
          <mxGeometry x="440" y="120" width="140" height="140" as="geometry" />
        </mxCell>
        <mxCell id="3FtpG7C2AMGnpTfffTlQ-7" value="2.0" style="rounded=0;whiteSpace=wrap;html=1;fontSize=14;" vertex="1" parent="1">
          <mxGeometry x="440" y="120" width="140" height="30" as="geometry" />
        </mxCell>
        <mxCell id="3FtpG7C2AMGnpTfffTlQ-24" style="edgeStyle=orthogonalEdgeStyle;rounded=0;orthogonalLoop=1;jettySize=auto;html=1;entryX=1;entryY=0.5;entryDx=0;entryDy=0;exitX=0.5;exitY=1;exitDx=0;exitDy=0;" edge="1" parent="1" source="3FtpG7C2AMGnpTfffTlQ-8" target="3FtpG7C2AMGnpTfffTlQ-4">
          <mxGeometry relative="1" as="geometry" />
        </mxCell>
        <mxCell id="3FtpG7C2AMGnpTfffTlQ-25" value="Account" style="edgeLabel;html=1;align=center;verticalAlign=middle;resizable=0;points=[];" vertex="1" connectable="0" parent="3FtpG7C2AMGnpTfffTlQ-24">
          <mxGeometry x="0.2457" y="-1" relative="1" as="geometry">
            <mxPoint as="offset" />
          </mxGeometry>
        </mxCell>
        <mxCell id="3FtpG7C2AMGnpTfffTlQ-8" value="Fill Insurance Info" style="whiteSpace=wrap;html=1;aspect=fixed;fontSize=14;" vertex="1" parent="1">
          <mxGeometry x="420" y="350" width="140" height="140" as="geometry" />
        </mxCell>
        <mxCell id="3FtpG7C2AMGnpTfffTlQ-9" value="4.0" style="rounded=0;whiteSpace=wrap;html=1;fontSize=14;" vertex="1" parent="1">
          <mxGeometry x="420" y="350" width="140" height="30" as="geometry" />
        </mxCell>
        <mxCell id="3FtpG7C2AMGnpTfffTlQ-10" value="Show Barcode" style="whiteSpace=wrap;html=1;aspect=fixed;fontSize=14;" vertex="1" parent="1">
          <mxGeometry x="614" y="450" width="140" height="140" as="geometry" />
        </mxCell>
        <mxCell id="3FtpG7C2AMGnpTfffTlQ-28" style="edgeStyle=orthogonalEdgeStyle;rounded=0;orthogonalLoop=1;jettySize=auto;html=1;entryX=0.75;entryY=0;entryDx=0;entryDy=0;" edge="1" parent="1" source="3FtpG7C2AMGnpTfffTlQ-11" target="3FtpG7C2AMGnpTfffTlQ-1">
          <mxGeometry relative="1" as="geometry">
            <Array as="points">
              <mxPoint x="730" y="40" />
              <mxPoint x="353" y="40" />
            </Array>
          </mxGeometry>
        </mxCell>
        <mxCell id="3FtpG7C2AMGnpTfffTlQ-35" value="Barcode" style="edgeLabel;html=1;align=center;verticalAlign=middle;resizable=0;points=[];" vertex="1" connectable="0" parent="3FtpG7C2AMGnpTfffTlQ-28">
          <mxGeometry x="0.1429" y="75" relative="1" as="geometry">
            <mxPoint x="-75" y="-77" as="offset" />
          </mxGeometry>
        </mxCell>
        <mxCell id="3FtpG7C2AMGnpTfffTlQ-11" value="5.0" style="rounded=0;whiteSpace=wrap;html=1;fontSize=14;" vertex="1" parent="1">
          <mxGeometry x="614" y="450" width="140" height="30" as="geometry" />
        </mxCell>
        <mxCell id="3FtpG7C2AMGnpTfffTlQ-31" style="edgeStyle=orthogonalEdgeStyle;rounded=0;orthogonalLoop=1;jettySize=auto;html=1;exitX=0.5;exitY=0;exitDx=0;exitDy=0;entryX=0;entryY=0.75;entryDx=0;entryDy=0;" edge="1" parent="1" source="3FtpG7C2AMGnpTfffTlQ-29" target="3FtpG7C2AMGnpTfffTlQ-3">
          <mxGeometry relative="1" as="geometry" />
        </mxCell>
        <mxCell id="3FtpG7C2AMGnpTfffTlQ-33" value="Reply" style="edgeLabel;html=1;align=center;verticalAlign=middle;resizable=0;points=[];" vertex="1" connectable="0" parent="3FtpG7C2AMGnpTfffTlQ-31">
          <mxGeometry x="0.1291" y="2" relative="1" as="geometry">
            <mxPoint x="1" y="1" as="offset" />
          </mxGeometry>
        </mxCell>
        <mxCell id="3FtpG7C2AMGnpTfffTlQ-32" style="edgeStyle=orthogonalEdgeStyle;rounded=0;orthogonalLoop=1;jettySize=auto;html=1;exitX=0;exitY=0.25;exitDx=0;exitDy=0;entryX=0.75;entryY=0;entryDx=0;entryDy=0;" edge="1" parent="1" source="3FtpG7C2AMGnpTfffTlQ-2" target="3FtpG7C2AMGnpTfffTlQ-29">
          <mxGeometry relative="1" as="geometry" />
        </mxCell>
        <mxCell id="3FtpG7C2AMGnpTfffTlQ-34" value="Send" style="edgeLabel;html=1;align=center;verticalAlign=middle;resizable=0;points=[];" vertex="1" connectable="0" parent="3FtpG7C2AMGnpTfffTlQ-32">
          <mxGeometry x="0.0233" y="-1" relative="1" as="geometry">
            <mxPoint as="offset" />
          </mxGeometry>
        </mxCell>
        <mxCell id="3FtpG7C2AMGnpTfffTlQ-29" value="Datastore" style="rounded=0;whiteSpace=wrap;html=1;" vertex="1" parent="1">
          <mxGeometry x="60" y="280" width="170" height="50" as="geometry" />
        </mxCell>
        <mxCell id="3FtpG7C2AMGnpTfffTlQ-30" value="DS1" style="whiteSpace=wrap;html=1;aspect=fixed;" vertex="1" parent="1">
          <mxGeometry x="60" y="280" width="50" height="50" as="geometry" />
        </mxCell>
        <mxCell id="3FtpG7C2AMGnpTfffTlQ-39" style="edgeStyle=orthogonalEdgeStyle;rounded=0;orthogonalLoop=1;jettySize=auto;html=1;exitX=0;exitY=0.5;exitDx=0;exitDy=0;entryX=0;entryY=0.25;entryDx=0;entryDy=0;" edge="1" parent="1" source="3FtpG7C2AMGnpTfffTlQ-36" target="3FtpG7C2AMGnpTfffTlQ-1">
          <mxGeometry relative="1" as="geometry">
            <Array as="points">
              <mxPoint x="20" y="490" />
              <mxPoint x="20" y="75" />
            </Array>
          </mxGeometry>
        </mxCell>
        <mxCell id="3FtpG7C2AMGnpTfffTlQ-40" value="Success message" style="edgeLabel;html=1;align=center;verticalAlign=middle;resizable=0;points=[];" vertex="1" connectable="0" parent="3FtpG7C2AMGnpTfffTlQ-39">
          <mxGeometry x="0.4727" y="1" relative="1" as="geometry">
            <mxPoint as="offset" />
          </mxGeometry>
        </mxCell>
        <mxCell id="3FtpG7C2AMGnpTfffTlQ-36" value="Make Report" style="whiteSpace=wrap;html=1;aspect=fixed;fontSize=14;" vertex="1" parent="1">
          <mxGeometry x="45" y="420" width="140" height="140" as="geometry" />
        </mxCell>
        <mxCell id="3FtpG7C2AMGnpTfffTlQ-37" value="6.0" style="rounded=0;whiteSpace=wrap;html=1;fontSize=14;" vertex="1" parent="1">
          <mxGeometry x="45" y="420" width="140" height="30" as="geometry" />
        </mxCell>
        <mxCell id="3FtpG7C2AMGnpTfffTlQ-45" style="edgeStyle=orthogonalEdgeStyle;rounded=0;orthogonalLoop=1;jettySize=auto;html=1;exitX=0.5;exitY=0;exitDx=0;exitDy=0;entryX=1;entryY=0.5;entryDx=0;entryDy=0;" edge="1" parent="1" source="3FtpG7C2AMGnpTfffTlQ-43" target="3FtpG7C2AMGnpTfffTlQ-6">
          <mxGeometry relative="1" as="geometry" />
        </mxCell>
        <mxCell id="3FtpG7C2AMGnpTfffTlQ-48" value="Reply" style="edgeLabel;html=1;align=center;verticalAlign=middle;resizable=0;points=[];" vertex="1" connectable="0" parent="3FtpG7C2AMGnpTfffTlQ-45">
          <mxGeometry x="0.2414" y="4" relative="1" as="geometry">
            <mxPoint x="-4" y="-4" as="offset" />
          </mxGeometry>
        </mxCell>
        <mxCell id="3FtpG7C2AMGnpTfffTlQ-43" value="Datastore" style="rounded=0;whiteSpace=wrap;html=1;" vertex="1" parent="1">
          <mxGeometry x="550" y="280" width="170" height="50" as="geometry" />
        </mxCell>
        <mxCell id="3FtpG7C2AMGnpTfffTlQ-44" value="DS1" style="whiteSpace=wrap;html=1;aspect=fixed;" vertex="1" parent="1">
          <mxGeometry x="550" y="280" width="50" height="50" as="geometry" />
        </mxCell>
      </root>
    </mxGraphModel>
  </diagram>
</mxfile>
